# xmcd CD database file
#
# Track frame offsets:
#	150
#	803
#	15625
#	37320
#	51609
#	71164
#	90316
#	109875
#	127922
#	146703
#	164303
#	183760
#	205282
#	227194
#	244465
#	266726
#	287012
#	300692
#	318268
#
# Disc length: 4499 seconds
#
# Revision: 0
# Processed by: cddbd v1.5.2PL0 Copyright (c) Steve Scherf et al.
# Submitted via: CDex 1.50
#
DISCID=11119113
DTITLE=Various Artist - Merengue: Lo Que Estabas Esperando
DYEAR=1900
DGENRE=Merengue
TTITLE0=Intro
TTITLE1=Juan Luis Guerra-Las Avispas
TTITLE2=Grupo Clima-La Mesa Que Mas Aplauda
TTITLE3=Tono Rosario-Culiquitaka
TTITLE4=Mala Fe-Jillila Kimbolo
TTITLE5=Grupo Stass-Baila Morena
TTITLE6=Andy Pena-La Gata
TTITLE7=Kalimetre-Ding Dong
TTITLE8=Omar Enrique-Entre Tu Y Yo
TTITLE9=Aguacate-Herculito
TTITLE10=Eddy Herrera-La Ultima Vez
TTITLE11=Grupo Mio-Chica Good
TTITLE12=Eddy Herrera-Ajena
TTITLE13=Grupo Clima-Alerta
TTITLE14=Tono Rosario-Yo Culi Yo Cula
TTITLE15=Eddy Herrera-Demasiado Nina
TTITLE16=Grupo Clima-Mueve La Pompa
TTITLE17=Eddy Herrera-El Idiota
TTITLE18=Pochi Familia-La Barriguita
EXTD=
EXTT0=
EXTT1=
EXTT2=
EXTT3=
EXTT4=
EXTT5=
EXTT6=
EXTT7=
EXTT8=
EXTT9=
EXTT10=
EXTT11=
EXTT12=
EXTT13=
EXTT14=
EXTT15=
EXTT16=
EXTT17=
EXTT18=
PLAYORDER=
